# xmcd
#
# Track frame offsets: 
#        150
#        10265
#        47231
#        60075
#        69876
#        83752
#        96624
#        109464
#        126274
#        143901
#        161978
#        171934
#        189281
#        203540
#        218948
#        230519
#        243609
#        253739
#        265507
#        282377
#        290368
#        311893
#        324068
#        330212
#
# Disc length: 4595 seconds
#
# Revision: 0
# Processed by: cddbd v1.5.1PL0 Copyright (c) Steve Scherf et al.
# Submitted via: ExactAudioCopy v0.95b3
#
DISCID=5e11f118
DTITLE=Roy Book Binder - Roy Book Binder 24 Tunes (1973-1976)
DYEAR=1973
DGENRE=Blues
TTITLE0=King Edward Blues
TTITLE1=One Meat Ball
TTITLE2=Keep a Knockin'
TTITLE3=Wonder What's the Matter
TTITLE4=Long Tall Mama
TTITLE5=3X7
TTITLE6=Ragtime Millionaire
TTITLE7=CC and O Blues
TTITLE8=Stack O Lee
TTITLE9=Hesitation Blues
TTITLE10=Maybe It's the Blues
TTITLE11=Let's Get Drunk Again
TTITLE12='Lectric Chair Blues
TTITLE13=I got Mine
TTITLE14=Hey, Hey Daddy
TTITLE15=Never Cried till My Baby Got on the Train
TTITLE16=Sweets Petunia
TTITLE17=Take Me to the Land of Jazz
TTITLE18=He's in the Jailhouse Now
TTITLE19=Franklin Blues
TTITLE20=Bad Dream Blues
TTITLE21=Black Dog Blues
TTITLE22=Git -Fiddle Shuffle
TTITLE23=Bye-Bye Baby Blues
EXTD=
EXTT0=
EXTT1=
EXTT2=
EXTT3=
EXTT4=
EXTT5=
EXTT6=
EXTT7=
EXTT8=
EXTT9=
EXTT10=
EXTT11=
EXTT12=
EXTT13=
EXTT14=
EXTT15=
EXTT16=
EXTT17=
EXTT18=
EXTT19=
EXTT20=
EXTT21=
EXTT22=
EXTT23=
PLAYORDER=
